# xmcd
#
# Track frame offsets: 
#        150
#        13230
#        26395
#        40825
#        53275
#        67101
#        81227
#        95882
#        106941
#        120960
#        134381
#        149007
#        159312
#        171334
#        182565
#        194699
#        206601
#        219395
#        232141
#        240649
#        251609
#        263247
#        273713
#        284525
#        296548
#        308132
#
# Disc length: 4259 seconds
#
# Revision: 1
# Processed by: cddbd v1.5.2PL0 Copyright (c) Steve Scherf et al.
# Submitted via: ExactAudioCopy v0.99pb5
#
DISCID=8c10a11a
DTITLE=Various Artist - Rock 'N' Roll Roots: The Blues Influence
DYEAR=2005
DGENRE=Blues
TTITLE0=Sally Zu-Zazz - B ig Joe Turner with Albert Ammons and His Rhyth
TTITLE0=m Kings
TTITLE1=That's All Right Mama - Arthur 'Big Boy' Crudup
TTITLE2=My Gal's A Jockey - Big Joe Turner with Bill Moore's Lucky Sev
TTITLE2=en Band
TTITLE3=So Glad You're Mine - Arthur 'Big Boy' Crudup
TTITLE4=Tomorrow Night - Lonnie Johnson with John Hughes (piano) and Ray
TTITLE4=Coulter (bass)
TTITLE5=Boogie Chillin' - John Lee Hooker and his guitar
TTITLE6=Drinkin' Wine Spo-Dee-O-Dee - Stick McGhee and His Buddies
TTITLE7=Rockin' With Red - Piano Red
TTITLE8=Rolling Stone - Muddy Waters with Ernest 'Big' Crawford (bass)
TTITLE9=Rollin' and Tumbling (Part 1) - Muddy Waters with Ernest 'Big'
TTITLE9=Crawford (bass)
TTITLE10=Bon Ton Roula - Clarence Garlow
TTITLE11=That Ain't The Way To Do It - B.B. King and his Orchestra
TTITLE12=One Monkey Don't Stop No Show - Stick McGhee and His Buddies
TTITLE13=She's Dynamite - B.B. King and his Orchestra
TTITLE14=Passing By Blues - Howlin' Wolf with Ike Turner and his Band
TTITLE15=Howlin' Wolf Boogie - Howlin' Wolf
TTITLE16=Hound Dog - Big Mama Thornton with Kansas City Bill and his O
TTITLE16=rchestra
TTITLE17=Bear Cat - Rufus Thomas
TTITLE18=Cash Box Boogie - Lowell Fulson
TTITLE19=Walking The Boogie - Roosevelt Sykes with his Original Honeyd
TTITLE19=rippers
TTITLE20=Rock My Baby Right - Elmore James and his Broomdusters
TTITLE21=Hawaiian Boogie - Elmore James and his Broomdusters
TTITLE22=Shake Baby, Shake - Champion Jack Dupree
TTITLE23=No More Doggin' - John Lee Hooker and his Band
TTITLE24=My Country Man - Big Maybelle with Leroy Kirkland and his Orc
TTITLE24=hestra
TTITLE25=Move Me, Baby - Jimmy Witherspoon and his Band
EXTD=
EXTT0=
EXTT1=
EXTT2=
EXTT3=
EXTT4=
EXTT5=
EXTT6=
EXTT7=
EXTT8=
EXTT9=
EXTT10=
EXTT11=
EXTT12=
EXTT13=
EXTT14=
EXTT15=
EXTT16=
EXTT17=
EXTT18=
EXTT19=
EXTT20=
EXTT21=
EXTT22=
EXTT23=
EXTT24=
EXTT25=
PLAYORDER=
